<svg width="29" height="29" viewBox="0 0 29 29" fill="none" xmlns="http://www.w3.org/2000/svg">
<path fill-rule="evenodd" clip-rule="evenodd" d="M4.95354 0C2.21778 0 0 2.21778 0 4.95354V23.5293C0 26.2651 2.21778 28.4828 4.95354 28.4828H11.6019C10.4963 28.4807 9.4364 28.0406 8.65447 27.2587C7.87065 26.4749 7.43031 25.4118 7.43031 24.3033V5.72754C7.43031 5.35804 7.57709 5.00368 7.83836 4.74241C8.09963 4.48113 8.454 4.33435 8.82349 4.33435H11.6099V3.86996C11.6099 3.50046 11.7566 3.1461 12.0179 2.88483C12.2792 2.62356 12.6335 2.47678 13.003 2.47678C13.3725 2.47678 13.7269 2.62356 13.9882 2.88483C14.2494 3.1461 14.3962 3.50046 14.3962 3.86996V4.33435H16.7182V3.86996C16.7182 3.50046 16.865 3.1461 17.1262 2.88483C17.3875 2.62356 17.7419 2.47678 18.1114 2.47678C18.4809 2.47678 18.8352 2.62356 19.0965 2.88483C19.3578 3.1461 19.5046 3.50046 19.5046 3.86996V4.33435H21.8265V3.86996C21.8265 3.50046 21.9733 3.1461 22.2346 2.88483C22.4959 2.62356 22.8502 2.47678 23.2197 2.47678C23.5892 2.47678 23.9436 2.62356 24.2048 2.88483C24.4661 3.1461 24.6129 3.50046 24.6129 3.86996V4.33435H27.3993C27.7688 4.33435 28.1231 4.48113 28.3844 4.74241C28.4189 4.7769 28.4514 4.81301 28.4818 4.85056C28.427 2.16234 26.2307 0 23.5293 0H4.95354ZM22.8117 16.4649C23.0729 16.2037 23.2197 15.8493 23.2197 15.4798C23.2197 15.1103 23.0729 14.756 22.8117 14.4947C22.5504 14.2334 22.196 14.0866 21.8265 14.0866H14.3962C14.0267 14.0866 13.6724 14.2334 13.4111 14.4947C13.1498 14.756 13.003 15.1103 13.003 15.4798C13.003 15.8493 13.1498 16.2037 13.4111 16.4649C13.6724 16.7262 14.0267 16.873 14.3962 16.873H21.8265C22.196 16.873 22.5504 16.7262 22.8117 16.4649ZM13.4111 19.1386C13.6724 18.8774 14.0267 18.7306 14.3962 18.7306H21.8265C22.196 18.7306 22.5504 18.8774 22.8117 19.1386C23.0729 19.3999 23.2197 19.7543 23.2197 20.1238C23.2197 20.4933 23.0729 20.8476 22.8117 21.1089C22.5504 21.3702 22.196 21.5169 21.8265 21.5169H14.3962C14.0267 21.5169 13.6724 21.3702 13.4111 21.1089C13.1498 20.8476 13.003 20.4933 13.003 20.1238C13.003 19.7543 13.1498 19.3999 13.4111 19.1386ZM24.6129 7.12072H26.0061V24.3033C26.0061 24.6728 25.8593 25.0272 25.598 25.2884C25.3368 25.5497 24.9824 25.6965 24.6129 25.6965H11.6099C11.2404 25.6965 10.886 25.5497 10.6247 25.2884C10.3635 25.0272 10.2167 24.6728 10.2167 24.3033V7.12072H11.6099V7.58511C11.6099 7.95461 11.7566 8.30897 12.0179 8.57024C12.2792 8.83151 12.6335 8.9783 13.003 8.9783C13.3725 8.9783 13.7269 8.83151 13.9882 8.57024C14.2494 8.30897 14.3962 7.95461 14.3962 7.58511V7.12072H16.7182V7.58511C16.7182 7.95461 16.865 8.30897 17.1262 8.57024C17.3875 8.83151 17.7419 8.9783 18.1114 8.9783C18.4809 8.9783 18.8352 8.83151 19.0965 8.57024C19.3578 8.30897 19.5046 7.95461 19.5046 7.58511V7.12072H21.8265V7.58511C21.8265 7.95461 21.9733 8.30897 22.2346 8.57024C22.4959 8.83151 22.8502 8.9783 23.2197 8.9783C23.5892 8.9783 23.9436 8.83151 24.2048 8.57024C24.4661 8.30897 24.6129 7.95461 24.6129 7.58511V7.12072Z" fill="#F19674"/>
</svg>
